<?xml version="1.0" encoding="UTF-8" standalone="no"?>
<!-- Created with Inkscape (http://www.inkscape.org/) -->

<svg
   xmlns:dc="http://purl.org/dc/elements/1.1/"
   xmlns:cc="http://creativecommons.org/ns#"
   xmlns:rdf="http://www.w3.org/1999/02/22-rdf-syntax-ns#"
   xmlns:svg="http://www.w3.org/2000/svg"
   xmlns="http://www.w3.org/2000/svg"
   xmlns:sodipodi="http://sodipodi.sourceforge.net/DTD/sodipodi-0.dtd"
   xmlns:inkscape="http://www.inkscape.org/namespaces/inkscape"
   width="202.85831mm"
   height="202.85831mm"
   viewBox="0 0 202.85831 202.85831"
   version="1.1"
   id="svg265"
   inkscape:version="0.92.2 5c3e80d, 2017-08-06"
   sodipodi:docname="spacemanlogo.svg">
  <defs
     id="defs259">
    <clipPath
       clipPathUnits="userSpaceOnUse"
       id="clipPath169">
      <path
         d="M 0,384 H 672 V 0 H 0 Z"
         id="path167"
         inkscape:connector-curvature="0" />
    </clipPath>
  </defs>
  <sodipodi:namedview
     id="base"
     pagecolor="#ffffff"
     bordercolor="#666666"
     borderopacity="1.0"
     inkscape:pageopacity="0.0"
     inkscape:pageshadow="2"
     inkscape:zoom="0.24748737"
     inkscape:cx="30.331769"
     inkscape:cy="7.67371"
     inkscape:document-units="mm"
     inkscape:current-layer="layer1"
     showgrid="false"
     inkscape:window-width="1920"
     inkscape:window-height="1002"
     inkscape:window-x="0"
     inkscape:window-y="36"
     inkscape:window-maximized="1" />
  <metadata
     id="metadata262">
    <rdf:RDF>
      <cc:Work
         rdf:about="">
        <dc:format>image/svg+xml</dc:format>
        <dc:type
           rdf:resource="http://purl.org/dc/dcmitype/StillImage" />
        <dc:title />
      </cc:Work>
    </rdf:RDF>
  </metadata>
  <g
     inkscape:label="Layer 1"
     inkscape:groupmode="layer"
     id="layer1"
     transform="translate(-3.8750133,-27.220259)">
    <g
       transform="matrix(0.59409098,0,0,-0.59409098,-94.310403,242.71488)"
       id="g163">
      <g
         id="g165"
         clip-path="url(#clipPath169)">
        <g
           id="g171"
           transform="translate(359.333,110.833)">
          <path
             d="M 0,0 V 0 C 0,6.509 -5.324,11.834 -11.833,11.834 H -33.167 C -39.675,11.834 -45,6.509 -45,0 c 0,-6.508 5.325,-11.833 11.833,-11.833 h 21.334 C -5.324,-11.833 0,-6.508 0,0 m 19.251,-38.431 h -83 c -6.6,0 -12,5.401 -12,12 v 23.249 c 0,6.6 5.4,12 12,12 h 83 c 6.601,0 12,-5.4 12,-12 v -23.249 c 0,-6.599 -5.399,-12 -12,-12"
             style="fill:#4a90e2;fill-opacity:1;fill-rule:nonzero;stroke:none"
             id="path173"
             inkscape:connector-curvature="0" />
        </g>
        <g
           id="g175"
           transform="translate(336,128.0176)">
          <path
             d="m 0,0 c -41.055,0 -79.978,22.927 -79.978,63.982 0,44.255 42.655,63.982 79.978,63.982 37.323,0 79.978,-19.727 79.978,-63.982 C 79.978,22.927 41.056,0 0,0 m 13.862,-22.927 c -9.063,-3.199 -19.194,-3.199 -28.258,0 -3.732,1.067 -5.865,4.799 -4.266,7.465 1.6,2.666 4.799,3.733 7.465,2.666 6.931,-2.133 14.396,-2.133 21.861,0 2.666,1.067 6.398,0 7.464,-2.666 1.6,-2.666 0,-6.398 -4.266,-7.465 M 90.642,90.642 H 86.909 C 75.712,129.031 41.056,159.956 0,159.956 c -41.055,0 -75.712,-30.925 -86.909,-69.314 h -3.732 v 61.316 c 0,1.6 -1.067,2.666 -2.666,2.666 -1.6,0 -2.666,-1.066 -2.666,-2.666 V 85.31 77.312 47.987 c 0,-3.199 2.133,-5.332 5.332,-5.332 h 2.665 C -78.378,1.6 -42.655,-31.991 0,-31.991 c 42.654,0 78.378,33.591 87.976,74.646 h 2.666 c 3.199,0 5.332,2.133 5.332,5.332 V 85.31 c 0,3.199 -2.133,5.332 -5.332,5.332"
             style="fill:#4a90e2;fill-opacity:1;fill-rule:nonzero;stroke:none"
             id="path177"
             inkscape:connector-curvature="0" />
        </g>
        <g
           id="g179"
           transform="translate(393.0723,189.3174)">
          <path
             d="M 0,0 C -0.538,0 -0.538,0 -1.076,0.533 2.153,20.772 -17.227,33.556 -32.301,26.631 -39.299,21.305 -55.449,37.284 -39.299,43.143 -13.458,49.002 10.768,24.501 0,0 m -55.988,61.785 c -41.452,0 -75.368,-26.632 -75.368,-60.186 0,-33.556 33.916,-60.188 75.368,-60.188 41.453,0 75.369,26.632 75.369,60.188 0,33.554 -33.916,60.186 -75.369,60.186"
             style="fill:#4a90e2;fill-opacity:1;fill-rule:nonzero;stroke:none"
             id="path181"
             inkscape:connector-curvature="0" />
        </g>
        <g
           id="g183"
           transform="translate(336,347.73)">
          <path
             d="m 0,0 c 86.008,0 155.73,-69.723 155.73,-155.73 0,-86.008 -69.722,-155.73 -155.73,-155.73 -86.007,0 -155.73,69.722 -155.73,155.73 C -155.73,-69.723 -86.007,0 0,0 Z"
             style="fill:none;stroke:#4a90e2;stroke-width:30;stroke-linecap:butt;stroke-linejoin:miter;stroke-miterlimit:4;stroke-dasharray:none;stroke-opacity:1"
             id="path185"
             inkscape:connector-curvature="0" />
        </g>
      </g>
    </g>
  </g>
</svg>
